<?xml version="1.0" standalone="no"?>
<!DOCTYPE svg PUBLIC "-//W3C//DTD SVG 20010904//EN"
 "http://www.w3.org/TR/2001/REC-SVG-20010904/DTD/svg10.dtd">
<svg version="1.0" xmlns="http://www.w3.org/2000/svg"
 width="1546.000000pt" height="1023.000000pt" viewBox="0 0 1546.000000 1023.000000"
 preserveAspectRatio="xMidYMid meet">

<g transform="translate(0.000000,1023.000000) scale(0.100000,-0.100000)"
fill="#ebf4f5" stroke="none">
<path d="M2339 9217 c-29 -16 -54 -40 -74 -72 l-30 -48 -3 -3471 c-2 -3834 -8
-3528 61 -3594 70 -68 -202 -62 3067 -62 l2960 0 0 -445 0 -445 -1158 0 -1158
0 -53 -26 c-78 -39 -106 -87 -106 -180 0 -64 3 -77 30 -115 17 -23 48 -52 70
-63 l40 -21 2547 0 2546 0 44 30 c60 43 88 96 88 168 0 95 -50 166 -139 196
-25 8 -352 11 -1187 11 l-1154 0 0 445 0 445 2963 0 c2843 0 2964 1 3002 19
50 22 101 79 115 128 8 27 10 1031 8 3515 l-3 3476 -30 44 c-18 25 -49 52 -75
66 l-44 22 -6142 0 -6141 0 -44 -23z m12071 -3607 l0 -3230 -5885 0 -5885 0 0
3230 0 3230 5885 0 5885 0 0 -3230z"/>
<path d="M8395 8669 c-1369 -3 -2506 -9 -2525 -13 -19 -4 -84 -16 -145 -27
-378 -68 -728 -229 -1030 -474 -108 -88 -305 -288 -398 -405 -522 -654 -868
-1671 -972 -2855 -20 -228 -20 -845 -1 -965 70 -424 266 -749 611 -1012 435
-331 1074 -389 1567 -142 170 84 271 156 401 283 324 315 467 683 467 1204 l0
137 2173 0 2174 0 6 -197 c9 -281 33 -414 112 -618 235 -609 888 -1015 1536
-956 267 25 463 88 684 222 384 231 640 622 716 1094 18 105 18 730 0 915
-117 1274 -467 2283 -1021 2945 -460 550 -1064 847 -1770 867 -52 2 -1215 0
-2585 -3z m2325 -509 c0 -168 0 -170 -22 -174 -225 -43 -294 -64 -453 -142
-292 -143 -545 -403 -679 -696 -186 -409 -175 -883 31 -1282 204 -395 597
-687 1026 -762 l97 -18 0 -173 0 -173 -2175 0 -2175 0 0 173 0 173 98 18 c444
78 833 374 1039 790 343 692 85 1527 -592 1915 -150 86 -299 136 -522 177 -23
4 -23 6 -23 174 l0 170 2175 0 2175 0 0 -170z m-4690 -5 c0 -163 0 -165 -22
-169 -233 -44 -331 -75 -476 -151 -57 -30 -140 -80 -185 -112 -94 -67 -241
-210 -311 -301 -109 -143 -207 -344 -252 -514 -59 -226 -59 -508 0 -736 142
-546 599 -971 1149 -1068 l97 -18 0 -485 c0 -501 -6 -608 -41 -746 -121 -476
-538 -835 -1026 -885 -363 -38 -708 85 -969 345 -170 170 -273 364 -324 614
-18 88 -20 137 -20 443 0 490 36 842 136 1331 270 1319 857 2200 1664 2500
175 65 398 114 523 116 l57 1 0 -165z m5218 150 c591 -89 1091 -437 1459
-1015 271 -427 482 -992 607 -1625 111 -564 160 -1184 126 -1600 -44 -533
-411 -956 -935 -1077 -121 -28 -361 -30 -485 -4 -454 96 -801 428 -919 881
-36 137 -42 277 -35 767 l7 456 91 17 c597 108 1072 595 1171 1201 30 182 16
437 -33 619 -129 472 -495 853 -964 1004 -72 23 -237 61 -264 61 -2 0 -4 74
-4 165 l0 165 40 0 c22 0 84 -7 138 -15z m-4758 -689 c523 -145 863 -633 819
-1176 -37 -456 -358 -846 -803 -974 -262 -76 -550 -50 -801 73 -426 210 -674
668 -612 1136 33 250 137 471 304 639 166 168 344 266 573 317 130 29 389 21
520 -15z m4675 6 c158 -45 248 -86 355 -159 324 -226 507 -590 487 -972 -17
-348 -178 -650 -455 -854 -216 -159 -510 -238 -775 -208 -274 31 -502 143
-693 342 -188 196 -290 440 -301 716 -7 160 7 260 53 402 131 398 450 671 884
755 14 2 104 3 200 1 137 -2 190 -8 245 -23z"/>
<path d="M6146 7330 c-16 -5 -42 -22 -59 -37 -54 -51 -57 -70 -57 -333 l0
-240 -242 0 c-226 0 -245 -1 -286 -21 -118 -58 -129 -224 -19 -297 l40 -27
254 -3 253 -3 0 -240 c0 -264 4 -285 59 -332 89 -74 215 -47 262 57 16 36 19
69 19 279 l0 237 228 0 c125 0 244 5 264 10 77 22 128 89 128 170 0 70 -54
141 -121 160 -18 6 -139 10 -266 10 l-233 0 0 238 c0 208 -3 242 -19 277 -22
48 -44 69 -94 90 -40 17 -67 18 -111 5z"/>
<path d="M10782 7254 c-142 -71 -178 -263 -71 -379 124 -135 333 -102 408 65
53 117 -4 265 -124 321 -61 28 -149 25 -213 -7z m153 -134 c31 -12 59 -71 49
-103 -35 -115 -202 -79 -180 39 12 59 69 88 131 64z"/>
<path d="M10331 6779 c-147 -45 -221 -212 -152 -347 87 -168 315 -181 425 -24
25 35 31 55 34 112 2 38 -1 84 -8 105 -16 48 -73 111 -123 137 -47 23 -128 32
-176 17z m141 -182 c44 -56 0 -147 -72 -147 -97 0 -127 137 -38 175 39 16 86
4 110 -28z"/>
<path d="M11319 6777 c-61 -23 -105 -55 -132 -96 -71 -106 -54 -238 39 -321
68 -59 147 -76 241 -51 54 15 126 80 148 133 22 54 22 142 0 193 -46 113 -190
181 -296 142z m143 -180 c45 -57 1 -147 -73 -147 -97 0 -126 137 -37 175 39
16 86 4 110 -28z"/>
<path d="M10795 6271 c-90 -41 -145 -126 -145 -226 0 -75 24 -128 77 -176 129
-117 320 -77 392 81 53 117 -4 265 -124 321 -53 24 -147 25 -200 0z m145 -146
c53 -27 60 -106 14 -146 -30 -25 -55 -30 -91 -18 -66 21 -82 115 -26 159 30
24 63 26 103 5z"/>
</g>
</svg>
