<svg aria-hidden="true" style="position: absolute; width: 0; height: 0; overflow: hidden;" version="1.1" xmlns="http://www.w3.org/2000/svg" xmlns:xlink="http://www.w3.org/1999/xlink">
<defs>
<symbol id="nintendoswitch" viewBox="0 0 32 32">
<path fill="#e60012" style="fill: var(--color1, #e60012)" d="M18.901 32h4.899c4.501 0 8.2-3.699 8.2-8.2v-15.6c0-4.5-3.699-8.2-8.2-8.2h-5c-0.099 0-0.2 0.099-0.2 0.2v31.6c-0.001 0.101 0.1 0.2 0.301 0.2zM25 14.401c1.801 0 3.199 1.5 3.199 3.197 0 1.803-1.5 3.2-3.199 3.2-1.8 0-3.2-1.399-3.2-3.2-0.1-1.799 1.4-3.197 3.2-3.197zM15.2 0h-7c-4.5 0-8.2 3.7-8.2 8.2v15.6c0 4.501 3.7 8.2 8.2 8.2h7c0.099 0 0.2-0.099 0.2-0.199v-31.601c0.001-0.101-0.1-0.2-0.2-0.2zM12.901 29.401h-4.701c-3.101 0-5.601-2.5-5.601-5.601v-15.6c0-3.101 2.5-5.601 5.601-5.601h4.6zM5 9.599c0 1.7 1.3 3 3 3s3-1.3 3-3c0-1.697-1.3-3-3-3s-3 1.303-3 3z"></path>
</symbol>
<symbol id="xbox" viewBox="0 0 32 32">
<path fill="#107c10" style="fill: var(--color2, #107c10)" d="M5.469 28.044c2.812 2.464 6.5 3.956 10.531 3.956 4.035 0 7.719-1.492 10.536-3.956 2.503-2.549-5.755-11.612-10.536-15.223-4.776 3.611-13.039 12.673-10.531 15.223zM20.349 8.836c3.333 3.948 9.979 13.751 8.101 17.216 2.219-2.745 3.549-6.237 3.549-10.047 0-4.453-1.82-8.483-4.76-11.381 0 0-0.036-0.029-0.109-0.056-0.084-0.029-0.203-0.060-0.375-0.060-0.789 0-2.647 0.579-6.407 4.328zM4.872 4.568c-0.076 0.027-0.109 0.055-0.115 0.056-2.937 2.899-4.757 6.928-4.757 11.381 0 3.805 1.331 7.297 3.548 10.044-1.868-3.473 4.772-13.268 8.107-17.213-3.76-3.751-5.621-4.327-6.408-4.327-0.175 0-0.297 0.028-0.375 0.061zM16 4.735c0 0-3.927-2.297-6.993-2.407-1.204-0.044-1.939 0.393-2.028 0.452 2.86-1.919 5.9-2.78 9-2.78h0.021c3.112 0 6.14 0.861 9.021 2.78-0.091-0.061-0.82-0.496-2.027-0.452-3.067 0.109-6.995 2.399-6.995 2.399z"></path>
</symbol>
<symbol id="playstation" viewBox="0 0 32 32">
<path fill="#003791" style="fill: var(--color3, #003791)" d="M11.98 3.461v23.397l5.22 1.681v-19.623c0-0.92 0.405-1.535 1.059-1.321 0.848 0.241 1.013 1.085 1.013 2.007v7.835c3.255 1.591 5.816-0.003 5.816-4.204 0-4.316-1.501-6.233-5.917-7.769-1.743-0.597-4.971-1.581-7.188-2.003zM18.188 25.117l8.395-3.033c0.953-0.344 1.101-0.833 0.328-1.091-0.781-0.256-2.183-0.185-3.143 0.164l-5.607 1.999v-3.18l0.32-0.113c0 0 1.601-0.56 3.884-0.82 2.261-0.24 5.047 0.039 7.249 0.881 2.464 0.801 2.721 1.963 2.101 2.763s-2.163 1.381-2.163 1.381l-11.392 4.143v-3.063zM2.411 24.8c-2.533-0.727-2.952-2.224-1.803-3.095 1.068-0.78 2.879-1.401 2.879-1.401l7.488-2.684v3.084l-5.367 1.963c-0.94 0.361-1.1 0.843-0.319 1.101 0.781 0.26 2.183 0.2 3.124-0.16l2.584-0.941v2.765c-0.161 0.039-0.341 0.059-0.521 0.097-2.584 0.441-5.327 0.261-8.049-0.639z"></path>
</symbol>
</defs>
</svg>
